<mxfile host="app.diagrams.net" modified="2021-10-19T18:19:24.564Z" agent="5.0 (X11; Linux x86_64) AppleWebKit/537.36 (KHTML, like Gecko) Chrome/95.0.4638.54 Safari/537.36" etag="RDrWjXidyEzqzvj45ryk" version="15.5.5" type="github">
  <diagram id="LQKRlHBBeknk-b-MMeLA" name="Page-1">
    <mxGraphModel dx="667" dy="489" grid="1" gridSize="10" guides="1" tooltips="1" connect="1" arrows="1" fold="1" page="1" pageScale="1" pageWidth="827" pageHeight="1169" math="0" shadow="0">
      <root>
        <mxCell id="0" />
        <mxCell id="1" parent="0" />
        <mxCell id="F0X57s9JsJMdalnqqCWt-10" style="edgeStyle=orthogonalEdgeStyle;rounded=0;orthogonalLoop=1;jettySize=auto;html=1;exitX=1;exitY=0.5;exitDx=0;exitDy=0;entryX=0;entryY=0.5;entryDx=0;entryDy=0;" edge="1" parent="1" source="F0X57s9JsJMdalnqqCWt-1" target="F0X57s9JsJMdalnqqCWt-2">
          <mxGeometry relative="1" as="geometry" />
        </mxCell>
        <mxCell id="F0X57s9JsJMdalnqqCWt-11" style="edgeStyle=orthogonalEdgeStyle;rounded=0;orthogonalLoop=1;jettySize=auto;html=1;exitX=1;exitY=0.5;exitDx=0;exitDy=0;entryX=0;entryY=0.5;entryDx=0;entryDy=0;" edge="1" parent="1" source="F0X57s9JsJMdalnqqCWt-1" target="F0X57s9JsJMdalnqqCWt-9">
          <mxGeometry relative="1" as="geometry" />
        </mxCell>
        <mxCell id="F0X57s9JsJMdalnqqCWt-1" value="" style="ellipse;whiteSpace=wrap;html=1;aspect=fixed;fillColor=#0A0A0A;" vertex="1" parent="1">
          <mxGeometry x="175" y="220" width="40" height="40" as="geometry" />
        </mxCell>
        <mxCell id="F0X57s9JsJMdalnqqCWt-16" style="edgeStyle=orthogonalEdgeStyle;rounded=0;orthogonalLoop=1;jettySize=auto;html=1;exitX=1;exitY=0.5;exitDx=0;exitDy=0;entryX=0;entryY=0.5;entryDx=0;entryDy=0;" edge="1" parent="1" source="F0X57s9JsJMdalnqqCWt-2" target="F0X57s9JsJMdalnqqCWt-15">
          <mxGeometry relative="1" as="geometry" />
        </mxCell>
        <mxCell id="F0X57s9JsJMdalnqqCWt-2" value="" style="ellipse;whiteSpace=wrap;html=1;aspect=fixed;fillColor=#0A0A0A;" vertex="1" parent="1">
          <mxGeometry x="360" y="160" width="40" height="40" as="geometry" />
        </mxCell>
        <mxCell id="F0X57s9JsJMdalnqqCWt-8" value="(1,0,0,0,0)" style="text;html=1;align=center;verticalAlign=middle;resizable=0;points=[];autosize=1;strokeColor=none;fillColor=none;" vertex="1" parent="1">
          <mxGeometry x="160" y="200" width="70" height="20" as="geometry" />
        </mxCell>
        <mxCell id="F0X57s9JsJMdalnqqCWt-9" value="" style="ellipse;whiteSpace=wrap;html=1;aspect=fixed;fillColor=#0A0A0A;" vertex="1" parent="1">
          <mxGeometry x="360" y="320" width="40" height="40" as="geometry" />
        </mxCell>
        <mxCell id="F0X57s9JsJMdalnqqCWt-12" value="T1" style="text;html=1;align=center;verticalAlign=middle;resizable=0;points=[];autosize=1;strokeColor=none;fillColor=none;" vertex="1" parent="1">
          <mxGeometry x="290" y="160" width="30" height="20" as="geometry" />
        </mxCell>
        <mxCell id="F0X57s9JsJMdalnqqCWt-13" value="T3" style="text;html=1;align=center;verticalAlign=middle;resizable=0;points=[];autosize=1;strokeColor=none;fillColor=none;" vertex="1" parent="1">
          <mxGeometry x="290" y="340" width="30" height="20" as="geometry" />
        </mxCell>
        <mxCell id="F0X57s9JsJMdalnqqCWt-14" value="(0,1,0,0,0)" style="text;html=1;align=center;verticalAlign=middle;resizable=0;points=[];autosize=1;strokeColor=none;fillColor=none;" vertex="1" parent="1">
          <mxGeometry x="344" y="130" width="70" height="20" as="geometry" />
        </mxCell>
        <mxCell id="F0X57s9JsJMdalnqqCWt-20" style="edgeStyle=orthogonalEdgeStyle;rounded=0;orthogonalLoop=1;jettySize=auto;html=1;exitX=1;exitY=0.5;exitDx=0;exitDy=0;entryX=0;entryY=0.5;entryDx=0;entryDy=0;" edge="1" parent="1" source="F0X57s9JsJMdalnqqCWt-15" target="F0X57s9JsJMdalnqqCWt-19">
          <mxGeometry relative="1" as="geometry" />
        </mxCell>
        <mxCell id="F0X57s9JsJMdalnqqCWt-15" value="" style="ellipse;whiteSpace=wrap;html=1;aspect=fixed;fillColor=#0A0A0A;" vertex="1" parent="1">
          <mxGeometry x="560" y="160" width="40" height="40" as="geometry" />
        </mxCell>
        <mxCell id="F0X57s9JsJMdalnqqCWt-17" value="T2" style="text;html=1;align=center;verticalAlign=middle;resizable=0;points=[];autosize=1;strokeColor=none;fillColor=none;" vertex="1" parent="1">
          <mxGeometry x="470" y="150" width="30" height="20" as="geometry" />
        </mxCell>
        <mxCell id="F0X57s9JsJMdalnqqCWt-18" value="(0,0,1,0,1)" style="text;html=1;align=center;verticalAlign=middle;resizable=0;points=[];autosize=1;strokeColor=none;fillColor=none;" vertex="1" parent="1">
          <mxGeometry x="545" y="130" width="70" height="20" as="geometry" />
        </mxCell>
        <mxCell id="F0X57s9JsJMdalnqqCWt-19" value="" style="ellipse;whiteSpace=wrap;html=1;aspect=fixed;fillColor=#0A0A0A;" vertex="1" parent="1">
          <mxGeometry x="760" y="160" width="40" height="40" as="geometry" />
        </mxCell>
        <mxCell id="F0X57s9JsJMdalnqqCWt-21" value="T5" style="text;html=1;align=center;verticalAlign=middle;resizable=0;points=[];autosize=1;strokeColor=none;fillColor=none;" vertex="1" parent="1">
          <mxGeometry x="645" y="150" width="30" height="20" as="geometry" />
        </mxCell>
        <mxCell id="F0X57s9JsJMdalnqqCWt-22" value="(0,0,1,1,0)" style="text;html=1;align=center;verticalAlign=middle;resizable=0;points=[];autosize=1;strokeColor=none;fillColor=none;" vertex="1" parent="1">
          <mxGeometry x="750" y="130" width="70" height="20" as="geometry" />
        </mxCell>
        <mxCell id="F0X57s9JsJMdalnqqCWt-23" value="" style="ellipse;whiteSpace=wrap;html=1;aspect=fixed;fillColor=#0A0A0A;" vertex="1" parent="1">
          <mxGeometry x="890" y="170" width="40" height="40" as="geometry" />
        </mxCell>
      </root>
    </mxGraphModel>
  </diagram>
</mxfile>
